<svg xmlns="http://www.w3.org/2000/svg" width="256" height="256" viewBox="0 0 100 100"><rect width="100" height="100" rx="20" fill="#4338ca"></rect><path fill="#fff" d="M35.63 82.73L25.76 82.73L25.76 17.27L49.09 17.27Q56.70 17.27 61.73 19.89Q66.76 22.51 69.26 27.13Q71.75 31.75 71.75 37.79L71.75 37.79Q71.75 43.80 69.24 48.35Q66.73 52.91 61.70 55.43Q56.66 57.96 49.06 57.96L49.06 57.96L31.38 57.96L31.38 49.46L48.16 49.46Q52.96 49.46 55.98 48.08Q59.00 46.71 60.40 44.09Q61.81 41.47 61.81 37.79L61.81 37.79Q61.81 34.08 60.39 31.37Q58.96 28.65 55.94 27.20Q52.92 25.74 48.03 25.74L48.03 25.74L35.63 25.74L35.63 82.73ZM47.14 53.20L58.07 53.20L74.24 82.73L62.99 82.73L47.14 53.20Z"></path></svg>